<?xml version="1.0" encoding="utf-8"?>
<!-- Generator: Adobe Illustrator 20.1.0, SVG Export Plug-In . SVG Version: 6.00 Build 0)  -->
<svg version="1.1" id="Layer_1" xmlns="http://www.w3.org/2000/svg" xmlns:xlink="http://www.w3.org/1999/xlink" x="0px" y="0px"
	 viewBox="0 0 144 144" style="enable-background:new 0 0 144 144;" xml:space="preserve">
<style type="text/css">
	.st0{fill:#394B5B;}
	.st1{opacity:0.63;fill:#91D5E6;}
	.st2{fill:#91D5E6;}
	.st3{opacity:0.6;fill:#CFEAF3;}
	.st4{fill:#CFEAF3;}
	.st5{opacity:0.6;fill:#91D5E6;}
	.st6{fill:none;stroke:#455360;stroke-width:2;stroke-miterlimit:10;}
</style>
<path id="Deep" class="st0" d="M7.8,58.7c0,0,9.5-4.3,26.5-4.7s32-13.2,54-1.7c10.5,5.5,14.6-2.7,30.8-0.3c8,1.2,18.5,17,18.4,12.6
	c0.3,11.1-1,16.5-2.4,27.7l-75.2,14.1l-52.3-21c0-5-1.7-10.3-1.6-15.3C6,66.2,7.8,62.6,7.8,58.7z"/>
<path id="_x32__Dark" class="st1" d="M134.9,91.6c0,0-3.6,14.5-15.1,22.3s-28.2,6.7-28.2,6.7s-39.6,0.6-63.1-1.8
	C12,117.1,7.2,76.7,6.6,75.8C5.9,74.6,25,93.8,42.5,87c21.5-8.4,17.9,26.9,56.5,2.8C110,83,134.1,82,134.9,91.6z"/>
<path id="_x32__Medium_1_" class="st1" d="M134.8,92.7c0,0-3.5,14.5-15,22.3s-57.5,15.9-57.5,15.9s-8.4-8.6-31.9-11
	c-16.6-1.7-23.3-42.1-23.9-43C5.9,75.7,25,94.9,42.5,88c21.5-8.4,17.9,26.9,56.5,2.8C110,84,134.1,83.1,134.8,92.7z"/>
<path id="_x32__Light" class="st2" d="M134.8,93.8c0,0-5.3,14.6-15.4,24.1c-9.3,8.8-41,17.6-41,17.6s-23.5-11.6-47-14.1
	c-16.4-1.7-22.7-29-23.3-33.1c0,0-1.8-7.8-1.6-10.5c0,0,0,0,0,0c0.2-0.2,18.8,18,36,11.2C64,80.7,60.5,116,99.1,91.9
	C110,85.1,134.1,84.2,134.8,93.8z"/>
<path id="_x31__Light" class="st3" d="M45.8,134c6.7,3.7,23.2,6.4,32.9,4.8c16-2.7,35.8-13.6,39.3-19s-14.6-23.5-38-6.8
	C40.1,141.2,8.2,88.7,8.2,88.7S5.2,111.5,45.8,134z"/>
<path id="_x31__Dark" class="st3" d="M43.5,132.5c6.3,4.6,24.9,6.8,34.5,5.3c15.8-2.6,35.8-12.3,39.3-17.5
	c3.5-5.3-14.6-22.4-37.8-6.3C40.1,141.5,8,89.7,8,89.7S6.5,105.3,43.5,132.5z"/>
<path id="_x31__Medium" class="st4" d="M41.6,132.1c6.9,3.7,29.1,8.2,38.8,6.7c16.1-2.5,32.4-11.8,35.9-17c3.5-5.2-13.5-23.1-37-7
	C39.5,142.1,9.3,92.4,9.3,92.4c0.5,3.3,2.5,8.4,5.3,13.4C23.7,121.8,35.3,128.7,41.6,132.1z"/>
<path id="_x34__Dark" class="st5" d="M6.8,58.7c0,0,3.2-14.6,14.5-22.6s28-7.4,28-7.4s41.4-2.2,64.9-0.3
	c16.7,1.3,23.5,45.2,24.1,46.1c0.7,1.1-16.1-24.4-48.2-2.5c-3.8,2.6-6.6,3.2-8.8,2.6c-3.3-0.9-5.2-3.6-8.6-10.7
	c-3-6.2-5.5-8.8-8.4-10.2c-6.4-3-14.1,1-21.7,6C31.9,66.8,7.8,68.3,6.8,58.7z"/>
<path id="_x34__Medium" class="st5" d="M6.8,57.7c0,0,3.2-14.6,14.5-22.6s28-7.4,28-7.4s41.4-2.2,64.9-0.3
	c16.7,1.3,23.5,45.2,24.1,46.1c0.7,1.1-15.9-24.4-48-2.5c-3.8,2.6-6.6,3.2-8.8,2.6c-3.1-0.9-4.8-3.4-7.9-9.5
	c-3.4-6.9-6.3-9.8-9.4-11.3c-6.2-3.1-13.9,0.9-21.8,6C31.9,65.8,7.8,67.3,6.8,57.7z"/>
<path id="_x34__Light" class="st2" d="M7.1,56.8c0,0,3.1-15.9,14.4-23.9s27.8-6.1,27.8-6.1s41.4-2.2,64.9-0.3
	c16.7,1.3,23.5,45.2,24.1,46.1c0.7,1.1-15.6-24.3-47.7-2.3c-22.3,15.2-10-37.3-48.1-12.4C31.9,64.8,8.1,66.3,7.1,56.8z"/>
<path id="_x33__Dark" class="st3" d="M84.2,7.9c-7.3-3.1-24.9-1.9-34.1,1.8c-15.1,6-31.6,21-33.9,26.9c-2.3,5.9,2.3,16.7,28,4.4
	c15.8-7.6,22-12.6,40.3-11.8c28.7,1.2,52.6,30.3,52.6,30.3S126.9,26.4,84.2,7.9z"/>
<path id="_x33__Medium" class="st3" d="M91.3,10C84,6.8,60.2,6.4,51.1,10c-15.1,6-31.7,20-34,25.9c-2.3,5.9,1.4,16.4,27.1,4.1
	c15.8-7.6,22-12.6,40.3-11.8c28.7,1.2,51.9,29.6,51.9,29.6S134,28.4,91.3,10z"/>
<path id="_x33__Light" class="st4" d="M89.8,9.3c-7.3-3.1-30-2.8-39.1,0.8c-15.1,6-30.1,18.5-32.4,24.4C16,40.4,18.5,51.3,44.2,39
	c15.8-7.6,22-12.6,40.3-11.8c28.7,1.2,51.7,29.6,51.7,29.6c-7.3-15.9-12.1-25.9-18.4-31.7C110.1,17.8,102.3,14.7,89.8,9.3z"/>
<circle class="st6" cx="71.7" cy="73" r="65.8"/>
</svg>
