<?xml version="1.0" encoding="utf-8"?>
<!-- Generator: Adobe Illustrator 20.1.0, SVG Export Plug-In . SVG Version: 6.00 Build 0)  -->
<svg version="1.1" xmlns="http://www.w3.org/2000/svg" xmlns:xlink="http://www.w3.org/1999/xlink" x="0px" y="0px"
	 viewBox="0 0 360 360" style="enable-background:new 0 0 360 360;" xml:space="preserve">
<style type="text/css">
	.st0{fill:#394B5B;}
	.st1{opacity:0.63;fill:#91D5E6;}
	.st2{fill:#91D5E6;}
	.st3{opacity:0.6;fill:#CFEAF3;}
	.st4{fill:#CFEAF3;}
	.st5{opacity:0.6;fill:#91D5E6;}
	.st6{fill:none;stroke:#394B5B;stroke-width:3;stroke-miterlimit:10;}
	.st7{fill:none;stroke:#455360;stroke-width:2;stroke-miterlimit:10;}
	.st8{fill:none;stroke:#485D6D;stroke-miterlimit:10;}
	.st9{fill:none;stroke:#5C6B87;stroke-width:0.25;stroke-miterlimit:10;}
</style>
<g id="Layer_3">
	<path id="Deep" class="st0" d="M121.8,156.7c0,0,9.5-4.3,26.5-4.7s32-13.2,54-1.7c10.5,5.5,14.6-2.7,30.8-0.3
		c8,1.2,15.7,11,20.1,11c-1.4,11.2-2.8,22.3-4.3,33.5l-75.3,5.7l-52.1-16.8L121.8,156.7z"/>
	<path id="_x32__Dark" class="st1" d="M249.8,189.6c0,0-3.5,14.5-15,22.3c-11.5,7.8-28.2,6.7-28.2,6.7s-39.6,0.6-63.1-1.8
		c-16.6-1.7-21.4-42.2-22-43.1c-0.7-1.1,18.4,18.1,35.9,11.2c21.5-8.4,17.9,26.9,56.5,2.8C225,181,249.1,180,249.8,189.6z"/>
	<path id="_x32__Medium_1_" class="st1" d="M249.8,190.7c0,0-3.5,14.5-15,22.3c-11.5,7.8-28.2,6.7-28.2,6.7s-37.7,0.6-61.2-1.8
		c-16.6-1.7-23.3-42.1-23.9-43c-0.7-1.1,18.4,18.1,35.9,11.2c21.5-8.4,17.9,26.9,56.5,2.8C225,182,249.1,181.1,249.8,190.7z"/>
	<path id="_x32__Light" class="st2" d="M249.8,191.8c0,0-3.5,14.5-15,22.3c-11.5,7.8-28.2,6.7-28.2,6.7s-36.7,1.1-60.2-1.3
		c-16.6-1.7-24.3-42.6-24.9-43.5c-0.7-1.1,18.4,18.1,35.9,11.2c21.5-8.4,17.9,26.9,56.5,2.8C225,183.1,249.1,182.2,249.8,191.8z"/>
	<path id="_x31__Light" class="st3" d="M161.4,231.3c6.3,4.7,23.7,7.3,33.4,5.6c16-2.7,34.7-16.6,38.3-22c3.5-5.4-13.6-21.7-37-5
		c-39.9,28.3-71.8-24.2-71.8-24.2S124.1,203.5,161.4,231.3z"/>
	<path id="_x31__Dark" class="st4" d="M159.5,230.5c6.3,4.6,24.9,6.8,34.5,5.3c15.8-2.6,34.4-13.9,37.9-19.2
		c3.5-5.3-13.5-21.2-36.7-5c-39.4,27.5-71.2-23.9-71.2-23.9S122.5,203.3,159.5,230.5z"/>
	<path id="_x31__Medium" class="st3" d="M160.7,231.4c6.4,4.7,23.9,7.3,33.6,5.7c16.1-2.5,34.8-15.9,38.3-21.2
		c3.5-5.2-13.8-21.3-37.3-5.2c-39.9,27.3-70.7-22.8-70.7-22.8S123.1,204,160.7,231.4z"/>
	<path id="_x34__Dark" class="st5" d="M121.8,156.7c0,0,3.2-14.6,14.5-22.6s28-7.4,28-7.4s41.4-2.2,64.9-0.3
		c16.7,1.3,23.5,45.2,24.1,46.1c0.7,1.1-16.3-24.4-48.4-2.5c-22.3,15.2-9.2-37.2-47.3-12.3C146.9,164.8,122.8,166.3,121.8,156.7z"/>
	<path id="_x34__Medium" class="st5" d="M121.8,155.7c0,0,3.2-14.6,14.5-22.6s28-7.4,28-7.4s41.4-2.2,64.9-0.3
		c16.7,1.3,23.5,45.2,24.1,46.1c0.7,1.1-15.9-24.4-48-2.5c-22.3,15.2-9.7-37.2-47.8-12.2C146.9,163.8,122.8,165.3,121.8,155.7z"/>
	<path id="_x34__Light" class="st2" d="M121.8,154.7c0,0,3.2-14.6,14.5-22.6s28-7.4,28-7.4s41.4-2.2,64.9-0.3
		c16.7,1.3,23.5,45.2,24.1,46.1c0.7,1.1-15.6-24.3-47.7-2.3c-22.3,15.2-10-37.3-48.1-12.4C146.9,162.8,122.8,164.3,121.8,154.7z"/>
	<path id="_x33__Dark" class="st3" d="M199.2,105.9c-7.3-3.1-24.9-1.9-34.1,1.8c-15.1,6-32,20.2-34.3,26.1
		c-2.3,5.9,2.7,17.5,28.4,5.2c15.8-7.6,22-12.6,40.3-11.8c28.7,1.2,52.6,30.3,52.6,30.3S241.9,124.4,199.2,105.9z"/>
	<path id="_x33__Medium" class="st3" d="M199.2,104.9c-7.3-3.1-24.9-1.9-34.1,1.8c-15.1,6-31.5,19-33.8,24.9
		c-2.3,5.9,2.2,18.7,27.8,6.4c15.8-7.6,22-12.6,40.3-11.8c28.7,1.2,52.6,30.3,52.6,30.3S241.9,123.4,199.2,104.9z"/>
	<path id="_x33__Light" class="st4" d="M199.8,104.8c-7.3-3.1-24.9-0.8-34.1,2.8c-15.1,6-30.7,17.9-33,23.8
		c-2.3,5.9,0.8,17.9,26.5,5.6c15.8-7.6,22-12.6,40.3-11.8c28.7,1.2,52.2,29.8,52.2,29.8c-7.3-15.9-12.6-26.1-18.8-31.9
		C225.1,115.8,212.2,110.2,199.8,104.8z"/>
</g>
<g id="Window">
	<circle class="st6" cx="186.7" cy="170" r="65.8"/>
	<circle class="st7" cx="186.7" cy="171" r="65.8"/>
	<circle class="st8" cx="186.7" cy="170" r="65.8"/>
	<circle class="st9" cx="186.7" cy="169.4" r="65.8"/>
</g>
</svg>
